# xmcd CD database file
#
# Track frame offsets:
#	150
#	16418
#	32122
#	57916
#	77902
#	93093
#	109346
#	124196
#	146412
#	166840
#	193644
#	210195
#	230318
#
# Disc length: 3401 seconds
#
# Revision: 0
# Processed by: cddbd v1.5.2PL0 Copyright (c) Steve Scherf et al.
# Submitted via: CDex 1.51
#
DISCID=a20d470d
DTITLE=Signe Hensel - Invitation
DYEAR=2002
DGENRE=Jazz
TTITLE0=Deed I Do
TTITLE1=Remember
TTITLE2=Invitation
TTITLE3=Darn That Dream
TTITLE4=Do Me Good, Baby
TTITLE5=Blue Skies
TTITLE6=It's All Right With Me
TTITLE7=Lonely Hours
TTITLE8=Close Enough For Love
TTITLE9=I Concentrate On You
TTITLE10=Slow Hot Wind
TTITLE11=On Green Dolphin Street
TTITLE12=Chelsea Bridge
EXTD=YEAR: 2002
EXTT0=
EXTT1=
EXTT2=
EXTT3=
EXTT4=
EXTT5=
EXTT6=
EXTT7=
EXTT8=
EXTT9=
EXTT10=
EXTT11=
EXTT12=
PLAYORDER=
